# xmcd
#
# Track frame offsets:
# 150
# 13612
# 26650
# 38487
# 52225
# 66837
# 84800
# 94037
# 104975
# 117000
#
# Disc length: 1728 seconds
#
#
# Revision: 1
# Processed by: cddbd v1.5.1PL2 Copyright (c) Steve Scherf et al.
# Submitted via: FreeRIP 2.945 
#
DISCID=7b06be0a
DTITLE=Tammy Wynette - Inducted Into The Hall Of Fame  1998       1998
DYEAR=2000
DGENRE=Country
TTITLE0=D-I-V-O-R-C-E
TTITLE1=My Elusive Dreams  (With David Houston)
TTITLE2=I Don't Wanna Play House
TTITLE3=Golden Ring  (With George Jones)
TTITLE4=Gentle On My Mind
TTITLE5=If It's The Last Thing I Do
TTITLE6=Your Good Girl's Gonna Go Bad
TTITLE7=A Pair Of Old Sneakers  (With George Jones)
TTITLE8=There Goes My Everything
TTITLE9=Take Me To Your World
EXTD=IMG Inc
EXTT0=
EXTT1=
EXTT2=
EXTT3=
EXTT4=
EXTT5=
EXTT6=
EXTT7=
EXTT8=
EXTT9=
PLAYORDER=
